<svg xmlns="http://www.w3.org/2000/svg" viewBox="0 0 400 400" width="400" height="400"><path d="M95 218 q11 -9 20 0 q-9 9 -20 0z" fill="#2f7bff" opacity="0.5" transform="rotate(171 95 218)"/><path d="M26 5 q7 -6 12 0 q-6 6 -12 0z" fill="#22c06e" opacity="0.5" transform="rotate(84 26 5)"/><rect x="188" y="335" width="5" height="16" rx="2" fill="#22c06e" opacity="0.5" transform="rotate(310 188 335)"/><rect x="254" y="347" width="5" height="16" rx="2" fill="#ff7bb0" opacity="0.5" transform="rotate(5 254 347)"/><circle cx="64" cy="383" r="4" fill="#ff3b5c" opacity="0.5"/><circle cx="189" cy="288" r="6" fill="#22c06e" opacity="0.5"/><rect x="291" y="231" width="7" height="22" rx="3" fill="#ffc400" opacity="0.5" transform="rotate(35 291 231)"/><circle cx="198" cy="103" r="5" fill="#ffffff" opacity="0.5"/><path d="M168 333 q7 -6 13 0 q-6 6 -13 0z" fill="#ff7bb0" opacity="0.5" transform="rotate(211 168 333)"/><path d="M93 135 q10 -9 19 0 q-9 9 -19 0z" fill="#ff3b5c" opacity="0.5" transform="rotate(357 93 135)"/><path d="M278 279 q11 -9 20 0 q-9 9 -20 0z" fill="#2f7bff" opacity="0.5" transform="rotate(326 278 279)"/><circle cx="42" cy="262" r="6" fill="#ffffff" opacity="0.5"/><rect x="50" y="193" width="8" height="24" rx="3" fill="#ffffff" opacity="0.5" transform="rotate(32 50 193)"/><rect x="164" y="60" width="5" height="16" rx="2" fill="#2f7bff" opacity="0.5" transform="rotate(149 164 60)"/><path d="M18 246 q7 -6 14 0 q-6 6 -14 0z" fill="#ff3b5c" opacity="0.5" transform="rotate(211 18 246)"/><rect x="352" y="392" width="5" height="14" rx="2" fill="#ff7bb0" opacity="0.5" transform="rotate(13 352 392)"/><circle cx="31" cy="240" r="7" fill="#ff3b5c" opacity="0.5"/><circle cx="244" cy="62" r="7" fill="#ff3b5c" opacity="0.5"/><circle cx="383" cy="359" r="4" fill="#22c06e" opacity="0.5"/><path d="M258 238 q6 -5 10 0 q-5 5 -10 0z" fill="#ff7bb0" opacity="0.5" transform="rotate(350 258 238)"/><circle cx="109" cy="254" r="4" fill="#ffffff" opacity="0.5"/><circle cx="208" cy="219" r="6" fill="#ff3b5c" opacity="0.5"/><circle cx="8" cy="246" r="3" fill="#ffffff" opacity="0.5"/><circle cx="187" cy="272" r="5" fill="#2f7bff" opacity="0.5"/><path d="M9 24 q5 -4 9 0 q-4 4 -9 0z" fill="#ffffff" opacity="0.5" transform="rotate(133 9 24)"/><circle cx="183" cy="237" r="4" fill="#2f7bff" opacity="0.5"/><path d="M338 106 q6 -5 10 0 q-5 5 -10 0z" fill="#22c06e" opacity="0.5" transform="rotate(293 338 106)"/><rect x="273" y="53" width="5" height="14" rx="2" fill="#ff7bb0" opacity="0.5" transform="rotate(289 273 53)"/><circle cx="131" cy="271" r="6" fill="#ffffff" opacity="0.5"/><rect x="380" y="270" width="5" height="16" rx="2" fill="#ffc400" opacity="0.5" transform="rotate(308 380 270)"/><rect x="32" y="297" width="7" height="22" rx="3" fill="#ffc400" opacity="0.5" transform="rotate(162 32 297)"/><path d="M315 14 q7 -6 13 0 q-6 6 -13 0z" fill="#ffc400" opacity="0.5" transform="rotate(301 315 14)"/><path d="M73 111 q5 -5 10 0 q-5 5 -10 0z" fill="#ffffff" opacity="0.5" transform="rotate(223 73 111)"/><circle cx="52" cy="117" r="5" fill="#2f7bff" opacity="0.5"/><path d="M168 164 q6 -5 11 0 q-5 5 -11 0z" fill="#22c06e" opacity="0.5" transform="rotate(2 168 164)"/><path d="M395 174 q6 -5 12 0 q-5 5 -12 0z" fill="#ffffff" opacity="0.5" transform="rotate(268 395 174)"/><rect x="299" y="385" width="5" height="15" rx="2" fill="#ff7bb0" opacity="0.5" transform="rotate(82 299 385)"/><path d="M343 388 q10 -9 19 0 q-9 9 -19 0z" fill="#ff3b5c" opacity="0.5" transform="rotate(16 343 388)"/><path d="M205 79 q9 -7 16 0 q-7 7 -16 0z" fill="#22c06e" opacity="0.5" transform="rotate(5 205 79)"/><circle cx="48" cy="201" r="5" fill="#ffc400" opacity="0.5"/><path d="M21 365 q7 -6 13 0 q-6 6 -13 0z" fill="#ff3b5c" opacity="0.5" transform="rotate(91 21 365)"/><rect x="191" y="313" width="4" height="13" rx="2" fill="#2f7bff" opacity="0.5" transform="rotate(44 191 313)"/><path d="M69 317 q10 -9 19 0 q-9 9 -19 0z" fill="#ffc400" opacity="0.5" transform="rotate(3 69 317)"/><path d="M228 160 q6 -6 12 0 q-6 6 -12 0z" fill="#2f7bff" opacity="0.5" transform="rotate(223 228 160)"/><rect x="169" y="189" width="7" height="22" rx="3" fill="#ff3b5c" opacity="0.5" transform="rotate(279 169 189)"/><path d="M50 27 q10 -9 19 0 q-9 9 -19 0z" fill="#ff3b5c" opacity="0.5" transform="rotate(31 50 27)"/></svg>